<svg xmlns="http://www.w3.org/2000/svg" width="114" height="114" viewBox="0 0 114 114"><defs><style>.a{fill:#171e2d;}</style></defs><g transform="translate(-577 -1386)"><path class="a" d="M0,60.34V53.66a10.242,10.242,0,0,0,.2-1.178,47.448,47.448,0,0,1,.81-6.17A55.913,55.913,0,0,1,16.477,16.951a56.07,56.07,0,0,1,30.7-16.1C49.325.47,51.512.405,53.66,0h6.68c1.5.18,3.013.332,4.511.543A55.719,55.719,0,0,1,94.533,14.125a56.145,56.145,0,0,1,18.616,33.056c.383,2.149.463,4.328.851,6.473v6.68a10.241,10.241,0,0,0-.2,1.178,47.447,47.447,0,0,1-.81,6.176A55.9,55.9,0,0,1,97.523,97.049a56.116,56.116,0,0,1-30.7,16.1c-2.153.381-4.34.456-6.488.851H53.66c-1.5-.18-3.013-.332-4.511-.543A55.719,55.719,0,0,1,19.467,99.875,56.145,56.145,0,0,1,.851,66.819C.468,64.664.387,62.484,0,60.34Zm16.728-6.68c2.928,0,5.856-.029,8.784.018.826.013,1.164-.174,1.191-1.071a95.344,95.344,0,0,1,2.946-20.856,1.008,1.008,0,0,0-.606-1.378,44.945,44.945,0,0,1-9.024-6.234c-.572-.514-.817-.309-1.211.163a55.645,55.645,0,0,0-3.986,5.344,50.153,50.153,0,0,0-7.94,23.067c-.076.835.2.975.949.964C10.8,53.638,13.762,53.66,16.728,53.66Zm80.5,0c2.895,0,5.789-.042,8.672.024,1.009.022,1.3-.209,1.2-1.265A50.351,50.351,0,0,0,95.145,24.243c-.381-.445-.626-.59-1.131-.136A46.275,46.275,0,0,1,84.9,30.413a.949.949,0,0,0-.557,1.3,96.307,96.307,0,0,1,2.964,20.965c.024.748.24,1.015,1.029,1C91.3,53.633,94.266,53.66,97.232,53.66ZM16.813,60.34c-3.039,0-6.079.02-9.118-.016-.695,0-.908.18-.813.879.223,1.612.358,3.233.655,4.841A50.088,50.088,0,0,0,18.83,89.73c.338.4.574.7,1.113.2a47,47,0,0,1,9.2-6.377c.481-.261.692-.481.534-1.113a97.368,97.368,0,0,1-3-21.183c-.022-.7-.238-.946-.977-.935C22.744,60.367,19.779,60.34,16.813,60.34Zm80.452,0c-2.966,0-5.932.022-8.9-.016-.744-.011-1.04.176-1.064.964a96.916,96.916,0,0,1-2.977,21.077.883.883,0,0,0,.541,1.2A47.064,47.064,0,0,1,94,89.869c.472.423.728.407,1.136-.082a56.592,56.592,0,0,0,4.057-5.428,50.176,50.176,0,0,0,7.929-23.076c.076-.846-.223-.966-.957-.957C103.2,60.362,100.231,60.34,97.265,60.34ZM43.509,53.66c3.079,0,6.159-.022,9.238.016.724,0,.933-.191.928-.924q-.047-7.348,0-14.7c0-.637-.125-.891-.831-.942a58.168,58.168,0,0,1-16.06-3.271c-.635-.223-.806-.045-.949.563a97.274,97.274,0,0,0-2.5,18.258c-.038.915.278,1.02,1.049,1.011C37.426,53.638,40.468,53.66,43.509,53.66Zm26.959,0c3.117,0,6.234-.018,9.352.013.684,0,.871-.18.842-.877a95.177,95.177,0,0,0-2.494-18.369c-.138-.572-.258-.835-.931-.59a58.745,58.745,0,0,1-16.058,3.284c-.668.049-.857.252-.853.92q.042,7.348,0,14.7c0,.833.3.953,1.024.944C64.386,53.64,67.427,53.66,70.468,53.66ZM43.527,60.34c-3.117,0-6.234.018-9.352-.013-.69,0-.864.194-.837.891a95.354,95.354,0,0,0,2.494,18.369c.138.579.272.826.935.586a58.663,58.663,0,0,1,16.058-3.284c.679-.049.851-.263.848-.926-.029-4.9-.038-9.8,0-14.7,0-.842-.312-.946-1.029-.94-3.035.033-6.076.013-9.12.013Zm26.941,0c-3.041,0-6.085.02-9.129-.016-.717,0-1.035.1-1.029.94.042,4.9.033,9.8,0,14.7,0,.668.167.877.848.926A58.58,58.58,0,0,1,77.217,80.17c.668.24.8,0,.935-.586a95.594,95.594,0,0,0,2.492-18.258c.033-.786-.158-1.009-.946-1-3.066.036-6.143.011-9.222.011ZM53.66,18.926c0-3.562-.027-7.125.018-10.687.013-.917-.247-.953-.986-.635a18.474,18.474,0,0,0-6.212,4.589c-3.752,4.084-6.145,8.96-8.156,14.05-.318.81-.109,1.046.641,1.311a56.156,56.156,0,0,0,13.88,2.91c.8.071.826-.256.824-.859Q53.656,24.274,53.66,18.926ZM60.34,7.281V28.01c0,.806-.354,1.848.174,2.351.479.461,1.476-.02,2.242-.089a48.893,48.893,0,0,0,12.536-2.828c.43-.158.721-.24.494-.833-2.042-5.373-4.553-10.465-8.546-14.7a16.3,16.3,0,0,0-6.9-4.638Zm0,87.793c0,3.563.027,7.125-.018,10.688-.011.891.223.975.98.646a18.365,18.365,0,0,0,6.214-4.589c3.752-4.079,6.148-8.946,8.156-14.045.316-.8.131-1.049-.63-1.316a56.138,56.138,0,0,0-13.88-2.912c-.784-.069-.835.236-.831.853C60.351,87.949,60.34,91.512,60.34,95.074Zm-6.807,11.578c.056-.107.087-.136.087-.167q.02-11.18.049-22.357c0-.606-.267-.635-.748-.592A55.583,55.583,0,0,0,38.831,86.5c-.741.267-.779.53-.521,1.185.737,1.859,1.5,3.705,2.4,5.5a33.307,33.307,0,0,0,7.388,10.2A13.95,13.95,0,0,0,53.533,106.652ZM39.41,103.84c-.41-.583-.819-1.151-1.216-1.726a54.7,54.7,0,0,1-5.932-11.632c-.223-.579-.381-.846-1.071-.43a53.229,53.229,0,0,0-6.446,4.518c-.57.468-.392.668.071,1.053a50.334,50.334,0,0,0,13.68,8.114C38.753,103.84,39.025,104.172,39.41,103.84Zm.018-93.821a1.6,1.6,0,0,0-.372,0A51.184,51.184,0,0,0,24.681,18.48c-.474.39-.363.572.036.9a52.306,52.306,0,0,0,6.328,4.493c.684.414.955.356,1.24-.407a52.95,52.95,0,0,1,4.331-9.1C37.5,12.914,38.457,11.522,39.428,10.02Zm35.215.038a58.8,58.8,0,0,1,7.21,13.7c.243.637.532.421.906.2a49.964,49.964,0,0,0,6.526-4.578c.668-.543.223-.726-.151-1.042a48.985,48.985,0,0,0-6.419-4.54,36.957,36.957,0,0,0-8.071-3.738Zm-.12,93.894a1.757,1.757,0,0,0,.459,0,51.389,51.389,0,0,0,14.37-8.461c.528-.445.24-.61-.1-.9a52.019,52.019,0,0,0-6.041-4.324c-.824-.514-1.2-.55-1.594.5A51.948,51.948,0,0,1,75.757,102.2c-.39.554-.782,1.113-1.234,1.761Z" transform="translate(577 1386)"/></g></svg>