<svg xmlns="http://www.w3.org/2000/svg" viewBox="0 0 1284 1072.88"><defs><style>.cls-1{fill:#5f00aa;}.cls-2{fill:#ffb600;}</style></defs><g id="Camada_2" data-name="Camada 2"><g id="Camada_1-2" data-name="Camada 1"><path class="cls-1" d="M973.89,532.93c-27.69-22.19-68.35-4.24-91,24.07-35,43.69-31.47,80.89-7.47,100.12,27.69,22.19,65.26,11.87,100.77-32.43C1003.77,590.22,1002.81,556.11,973.89,532.93Z"/><path class="cls-1" d="M1138.82,649.53c-27.69-22.19-68.35-4.24-91,24.07-35,43.69-31.47,80.88-7.46,100.12,27.69,22.19,65.26,11.87,100.76-32.44C1168.71,706.82,1167.75,672.7,1138.82,649.53Z"/><path class="cls-2" d="M1219.15,869.58c-150.12,84.6-347.5,28.2-432.09-62.65-60.68-65.18-87.72-153.51-65.79-241.24,17.74-71,109.65-172.31,202.18-219.1,4-2,4.1-6.35,4.06-9.5-.08-5.24-4.33-8.32-11.71-11.35L740.73,260.21l-4.19.06c-10.49.16-23,6.64-30.22,13L564.73,411.77c-3.09,3.19-6.21,5.33-8.3,5.37-3.15,0-5.29-3.07-5.38-9.36l0-1,8.85-387.09V18.59C560.76,8.09,551.2-.16,540.71,0l-1.05,0L338.79,31.35c-11.52,1.23-20.83,9.76-20.65,21.29l8.48,967.29c.17,11.54,9.75,20.83,20.23,20.68l177.25,1.52c11.53-.17,20.84-8.7,20.67-20.23L541.3,735.69C629.39,961.5,862.92,1101.38,1106.79,1068c39.46,1.11,85.29-16.81,103.28-40A906.36,906.36,0,0,0,1277,931.26C1299.57,892.47,1264.21,844.19,1219.15,869.58Z"/><path class="cls-1" d="M309.75,61.43c30,53.45,9.77,123.59-22.61,153.6-23.22,21.53-54.66,31.08-85.83,23.21-25.22-6.36-61.2-39.12-77.76-72.06-.72-1.41-2.26-1.46-3.38-1.45-1.86,0-3,1.53-4,4.16l-23.43,62.2,0,1.49c0,3.73,2.34,8.18,4.61,10.76l49.13,50.45a5.49,5.49,0,0,1,1.9,3c0,1.12-1.09,1.88-3.33,1.91h-.37L7,295.22H6.63C2.89,294.9,0,298.29,0,302v.37l11,71.46c.42,4.1,3.45,7.41,7.55,7.36l344-2.28a7.42,7.42,0,0,0,7.37-7.17l.67-63a7.17,7.17,0,0,0-7.18-7.36l-101.78,1c80.37-31.16,130.29-114.1,118.6-200.85.42-14-5.92-30.34-14.17-36.75a320.78,320.78,0,0,0-34.32-23.87C318,32.84,300.76,45.38,309.75,61.43Z"/><path class="cls-1" d="M258.93,975.83a54.94,54.94,0,0,1-5.46,24.06l48.33.85a3.7,3.7,0,0,1,3.72,3.55l1.05,32.1a3.39,3.39,0,0,1-3.55,3.35l-156.56.6a4,4,0,0,1-3.73-3.56l-1.41-36a3,3,0,0,1,3.36-3.35l6.91,0c-2.05-5-3.15-11.39-3.13-19,0-26.13,21-48.29,55.52-48.21C241.86,930.26,259,951.94,258.93,975.83Zm-72.05,9.54c0,8.4,9.3,13.27,17.89,13.29,13.24,0,19.6-6.11,19.62-13.39,0-8.4-7.44-13.83-20.87-13.86C193.07,971.39,186.9,976.6,186.88,985.37Z"/><path class="cls-1" d="M150.79,814.53c5.64,0,40.8,2,47.25,2.25,1.34,0,2.14,1.07,2.41,2.69.74,28.73,19,40.85,52,40.65,0,0,21.21-.22,48.59-.16a4.24,4.24,0,0,1,4.29,4.3l1,45.64v.27a4,4,0,0,1-4,4l-145.8,4.52h-.27a3.67,3.67,0,0,1-3.75-3.77v-.27l2.25-46.17c0-3.49.81-4.29,3.77-4.29l6.44,0c.54,0,1.07,0,1.07-.27a3.13,3.13,0,0,0-.8-.54c-13.13-9.42-17.39-27.15-17.37-39.23a57.25,57.25,0,0,1,.56-7.52c.27-.81.81-2.15,2.15-2.14Z"/><path class="cls-1" d="M304.63,733.82c-.08,39.35-27.53,77.08-78.09,77s-81-28.07-80.9-73.15c.09-41.7,27.52-71.88,81.21-71.76C276.11,666,304.72,694.46,304.63,733.82Zm-101.13,5c0,13,10.64,19.83,24.45,19.86s22.44-9.33,22.46-20.54c0-11.47-9.6-18.78-23.93-18.81C212.92,719.29,203.52,728.13,203.5,738.81Z"/><path class="cls-1" d="M219.1,554.88a2.76,2.76,0,0,1,2.86,2.67l-.24,19.28a3,3,0,0,0,2.86,3.07l80.6,4.48a2.87,2.87,0,0,1,2.65,2.87v.2l-2.33,40a2.9,2.9,0,0,1-2.88,2.65h-.2l-78.36-1.8h-.2a3.23,3.23,0,0,0-2.87,2.86l0,17.39a3.29,3.29,0,0,1-2.87,3.06l-33.58,1.77h-2.66c-1.44,0-.21-1.22-.2-2.66l.25-20.25a2.8,2.8,0,0,0-2.86-2.87l-41.3-.91a2.81,2.81,0,0,1-2.86-2.87l.51-45.53a2.76,2.76,0,0,1,2.87-2.66l41.5,2.14h.2a2.75,2.75,0,0,0,2.87-2.65l.25-17.23a2.79,2.79,0,0,1,2.87-2.86Z"/><path class="cls-1" d="M252.69,394.28c24.42,4.34,56.05,29.38,56,68.31-.1,46.72-27.29,81.56-77.5,81.45-49.66-.1-86.92-28.64-86.84-69.72.11-51.28,40.16-68.91,83.92-68.82,8.32,0,10.19,4.32,10.18,8.61.27,0,.8,4.57,2.26,76.53,17.19-3.19,23.12-14.45,23.14-24.92,0-9.4-4.79-18-10.7-19.63-2.41-.54-3.75-2.42-3.74-5.91-.48-28.19-1.26-41.35-1.26-41.89v0c0-2.68,1.35-4,3.5-4Zm-58.17,78.8c0,8.33,5.07,14.78,17.42,17-.51-11.28-1.29-26.85-1.28-27.93,0-.8-.27-1.07-1.34-1.07C201.53,461,194.54,464.76,194.52,473.08Z"/><path class="cls-1" d="M295,66.8a5.16,5.16,0,0,1,4.82,4.58l2.06,44v.27a4.39,4.39,0,0,1-4,4.29l-14.5.23c8,8.35,13.12,19.1,13.08,33.86-.08,40.27-29.94,66.79-77.19,66.69-44.57-.1-74-32.11-74-67.82,0-12.35,4.08-23.62,9.74-33l-7,.25a4.65,4.65,0,0,1-4.55-4.3l-.7-50.48a4.25,4.25,0,0,1,4.31-4.29Zm-82.81,53.25c-8.59,2.13-15.59,9.36-15.61,19.57,0,12.88,10.42,21.77,25.46,21.8,14.76,0,23.91-9.88,23.94-21.43,0-8.32-7.48-17.47-21.17-19.91Z"/></g></g></svg>