<svg xmlns="http://www.w3.org/2000/svg" width="114" height="114.179" viewBox="0 0 114 114.179"><defs><style>.a{fill:#171e2d;}</style></defs><g transform="translate(0 -1)"><path class="a" d="M56.092,0h1.784a4.178,4.178,0,0,1,2.716,4.46c-.1,1.641-.245,1.49,1.454,1.492,15.763,0,31.524.054,47.28-.038,3.5-.02,4.773,1.971,4.668,4.634-.134,3.412-.029,6.836-.038,10.259a6.291,6.291,0,0,1-.118,1.436c-.457,1.914-1.818,2.763-4.344,2.768-1.483,0-1.483,0-1.483,1.5V85.593c0,.484,0,.968-.027,1.45a3.461,3.461,0,0,1-3.278,3.314c-.479.04-.963.038-1.445.038H65.652c-.413,0-.876-.172-1.307.223.473.636.932,1.26,1.4,1.882q5.8,7.754,11.619,15.507a3.778,3.778,0,0,1,.524,4.353,4.5,4.5,0,0,1-2.429,1.815H73.9a7.3,7.3,0,0,1-2.837-2.538c-3.171-4.293-6.381-8.557-9.59-12.824-.223-.31-.384-.711-.912-.912v1.128c0,3.488-.085,6.978.031,10.462.074,2.23-.656,3.791-2.723,4.683H56.08a4.279,4.279,0,0,1-2.716-4.683c.116-1.922.025-3.858.025-5.787v-5.8c-.529.2-.669.6-.91.912-3.207,4.266-6.416,8.53-9.59,12.824a7.3,7.3,0,0,1-2.837,2.538H38.491a4.78,4.78,0,0,1-2.377-1.719c-.836-1.421-.682-2.9.549-4.534q6.1-8.162,12.213-16.318c.252-.337.488-.687.861-1.215H10.56A13.379,13.379,0,0,1,9,90.334,3.452,3.452,0,0,1,5.97,87.252c-.051-.517-.045-1.039-.045-1.561q0-29.662.02-59.323c0-1.015-.158-1.523-1.307-1.376A4.024,4.024,0,0,1,0,22.3V8.7C.845,6.584,2.424,5.923,4.65,5.93c15.834.06,31.669.022,47.5.056,1.035,0,1.383-.285,1.262-1.3A4.115,4.115,0,0,1,56.092,0Zm.865,83.2q21.367,0,42.733.02c.912,0,1.169-.205,1.166-1.149q-.042-27.931,0-55.862c0-1-.27-1.213-1.233-1.213q-42.621.04-85.242,0c-1.015,0-1.282.256-1.28,1.278q.047,27.877,0,55.755c0,1.024.294,1.2,1.236,1.2Q35.645,83.175,56.957,83.2ZM56.87,17.842h48.29a8.414,8.414,0,0,1,.892,0c.607.065.772-.223.749-.783-.033-.778,0-1.561,0-2.339-.022-1.811.223-1.561-1.508-1.561q-48.306-.011-96.6,0a6.965,6.965,0,0,1-.778,0c-.6-.067-.776.223-.749.778.036.7,0,1.412,0,2.119,0,1.784,0,1.784,1.731,1.784Z" transform="translate(0 1)"/><path class="a" d="M136.779,220.374H111.19a12.911,12.911,0,0,1-1.561-.065,3.563,3.563,0,0,1-.471-6.985,6.034,6.034,0,0,1,1.43-.165h52.289a3.757,3.757,0,0,1,3.863,2.259,3.528,3.528,0,0,1-2.835,4.906,12,12,0,0,1-1.561.069Q149.573,220.377,136.779,220.374Z" transform="translate(-82.746 -165.621)"/><path class="a" d="M127.85,266.487h17.025a6.3,6.3,0,0,1,1.98.21,3.568,3.568,0,0,1-.234,6.849,6.448,6.448,0,0,1-1.764.165H110.921a6.363,6.363,0,0,1-1.764-.17,3.515,3.515,0,0,1-2.607-3.682,3.459,3.459,0,0,1,3.058-3.3,12.412,12.412,0,0,1,1.561-.071Q119.507,266.485,127.85,266.487Z" transform="translate(-82.778 -207.055)"/><path class="a" d="M116.079,159.961c1.891,0,3.791-.016,5.669,0a3.589,3.589,0,1,1-.031,7.168q-5.723.033-11.448,0a3.588,3.588,0,1,1,.031-7.166C112.228,159.934,114.155,159.961,116.079,159.961Z" transform="translate(-82.756 -124.278)"/></g></svg>