<svg xmlns="http://www.w3.org/2000/svg" width="113.523" height="82" viewBox="0 0 113.523 82"><defs><style>.a{fill:#171e2d;}</style></defs><g transform="translate(-0.002 -0.039)"><path class="a" d="M113.526,48.791c-.349,2.116-.256,4.261-.425,6.391a80.561,80.561,0,0,1-1.362,10.643A17.671,17.671,0,0,1,96.307,80.067C87.361,81.311,78.351,81.5,69.35,81.829c-10.681.385-21.347.2-32.013-.245a162.917,162.917,0,0,1-20.626-1.7C8.449,78.471,3.062,73,1.58,64.683a115.732,115.732,0,0,1-1.5-17.651A200.6,200.6,0,0,1,.709,23.787a42.87,42.87,0,0,1,1.449-8.837C4.466,7.548,9.5,3.184,17.183,2.033,26.115.7,35.134.578,44.136.253c10.859-.4,21.716-.2,32.567.256A153.166,153.166,0,0,1,96.779,2.187c8.347,1.46,13.674,6.825,15.19,15.15A98.825,98.825,0,0,1,113.343,31.1c.022.581.12,1.159.182,1.74ZM55.429,8.847c-5.721.158-12.519.28-19.309.552-5.681.223-11.364.5-17.01,1.266-5.045.69-7.653,3.035-8.73,8a55.529,55.529,0,0,0-1.033,8.122,210.6,210.6,0,0,0-.2,25.145,63.183,63.183,0,0,0,1.531,12.735,8.337,8.337,0,0,0,6.273,6.231,20.559,20.559,0,0,0,2.831.514c8.218,1.057,16.494,1.228,24.761,1.54,10.788.409,21.572.171,32.353-.263,5.828-.234,11.658-.5,17.451-1.28,5.383-.723,8.011-3.189,8.957-8.527a85.879,85.879,0,0,0,1.113-11.013,218.571,218.571,0,0,0,0-21.937,60.537,60.537,0,0,0-1.538-12.508,8.37,8.37,0,0,0-6.48-6.3,38.092,38.092,0,0,0-5.91-.872C79.181,9.257,67.843,9.052,55.429,8.847Z"/><path class="a" d="M235.575,121.625,204.59,139.549V103.7Z" transform="translate(-159.061 -80.594)"/></g></svg>